<?xml version="1.0" encoding="utf-8"?>
<!-- Generator: Adobe Illustrator 26.5.0, SVG Export Plug-In . SVG Version: 6.00 Build 0)  -->
<svg version="1.1" id="Layer_1" xmlns="http://www.w3.org/2000/svg" xmlns:xlink="http://www.w3.org/1999/xlink" x="0px" y="0px"
	 viewBox="0 0 17.1 14.4" style="enable-background:new 0 0 17.1 14.4;" xml:space="preserve">
<style type="text/css">
	.st0{opacity:0.3;fill-rule:evenodd;clip-rule:evenodd;fill:#FFFFFF;}
	.st1{fill:#FFFFFF;}
	.st2{opacity:0.3;}
</style>
<path class="st0" d="M-93,3.8l0,0.6l-0.6-0.1c-2.3-0.3-4.3-1.3-6-2.9l-0.8-0.8l-0.2,0.6c-0.5,1.4-0.2,2.8,0.8,3.8
	c0.5,0.5,0.4,0.6-0.5,0.3c-0.3-0.1-0.6-0.2-0.6-0.1c-0.1,0.1,0.2,1.2,0.5,1.7c0.3,0.6,1,1.3,1.7,1.6l0.6,0.3l-0.7,0
	c-0.7,0-0.7,0-0.7,0.3c0.3,0.8,1.2,1.7,2.4,2.1l0.8,0.3l-0.7,0.4c-1,0.6-2.2,0.9-3.4,0.9c-0.6,0-1,0.1-1,0.1c0,0.1,1.5,0.8,2.4,1.1
	c2.7,0.8,5.9,0.5,8.3-0.9c1.7-1,3.4-3,4.2-4.9c0.4-1,0.9-2.9,0.9-3.8c0-0.6,0-0.7,0.7-1.4c0.4-0.4,0.8-0.9,0.9-1
	c0.1-0.2,0.1-0.2-0.5,0c-1.1,0.4-1.2,0.3-0.7-0.2c0.4-0.4,0.9-1.1,0.9-1.4c0,0-0.2,0-0.4,0.1c-0.2,0.1-0.7,0.3-1.1,0.4l-0.7,0.2
	l-0.6-0.4c-0.3-0.2-0.8-0.5-1.1-0.6C-89-0.1-89.9,0-90.5,0.2C-92.1,0.7-93.1,2.2-93,3.8z"/>
<path d="M484.9,343.4c-88.8,0-177.7,0-266.5,0c-8.1-1.4-16.5-2-24.4-4.2c-43.3-11.6-73.6-38.4-89.4-80.4c-4-10.6-5.4-22.1-8-33.2
	c0-91.8,0-183.6,0-275.5c0.3-1.6,0.6-3.2,1-4.8c3.2-11.8,4.8-24.4,9.9-35.3c23.4-50.3,63.6-76.7,119-77.3
	c83.7-0.8,167.3-0.3,251-0.2c27.5,0,53,7.3,75.3,23.6c36.7,26.7,54.9,63.2,54.9,108.5c0.1,82.3,0,164.6,0.1,247
	c0,22.3-4.3,43.6-15,63.3c-17.5,32-43.7,53.6-78.9,63.4C504.4,340.9,494.5,341.7,484.9,343.4z M372.2,245.6c0-2.4,0-4.2,0-6
	c0-31.8-0.2-63.5,0.1-95.3c0.1-9.9,1.1-20,3.2-29.6c3.3-14.8,12.7-24.2,28.2-26.5c4.2-0.6,8.6-0.6,12.9-0.4
	c13.5,0.9,23.2,7.7,27.2,20.5c2.8,8.7,4.8,18.1,4.9,27.3c0.6,34.6,0.3,69.2,0.4,103.8c0,2,0,3.9,0,6.2c20.6,0,40.6,0,61.3,0
	c0-1.8,0-3.4,0-5c0-35.9,0.2-71.8-0.1-107.8c-0.1-16.3-0.3-32.6-4.5-48.5c-4.7-18-13.4-33-31-41.1c-19.7-9.1-40.5-9.9-61.5-6.6
	c-17.7,2.8-32.9,10.2-43,25.9c-0.3,0.5-0.9,0.7-2.2,1.6c0-10,0-19.1,0-28.4c-19.3,0-37.9,0-56.6,0c0,70.2,0,140,0,210
	C331.8,245.6,351.7,245.6,372.2,245.6z M266.5,245.6c0-70.1,0-140,0-210.1c-24.3,0-48.3,0-72.3,0c0,70.2,0,140.1,0,210.1
	C218.5,245.6,242.4,245.6,266.5,245.6z M229.9-71.7c-20.4,0.1-37.2,16.7-37.3,37.1c-0.1,20.4,17.1,37.6,37.5,37.4
	c20-0.2,37.2-17.5,37.1-37.4C267.1-54.9,250.2-71.8,229.9-71.7z"/>
<path class="st1" d="M372.2,245.6c-20.5,0-40.4,0-60.5,0c0-70,0-139.8,0-210c18.7,0,37.3,0,56.6,0c0,9.3,0,18.5,0,28.4
	c1.3-0.9,1.9-1.1,2.2-1.6c10.1-15.7,25.3-23.1,43-25.9c21-3.3,41.8-2.5,61.5,6.6c17.5,8.1,26.3,23.1,31,41.1
	c4.1,15.9,4.3,32.3,4.5,48.5c0.2,35.9,0.1,71.8,0.1,107.8c0,1.6,0,3.2,0,5c-20.7,0-40.7,0-61.3,0c0-2.3,0-4.2,0-6.2
	c-0.1-34.6,0.2-69.2-0.4-103.8c-0.2-9.1-2.1-18.5-4.9-27.3c-4.1-12.8-13.8-19.6-27.2-20.5c-4.3-0.3-8.7-0.3-12.9,0.4
	c-15.5,2.2-24.9,11.7-28.2,26.5c-2.1,9.6-3.1,19.7-3.2,29.6c-0.4,31.8-0.1,63.5-0.1,95.3C372.2,241.4,372.2,243.2,372.2,245.6z"/>
<path class="st1" d="M266.5,245.6c-24.2,0-48.1,0-72.3,0c0-70,0-139.9,0-210.1c24.1,0,48,0,72.3,0
	C266.5,105.6,266.5,175.4,266.5,245.6z"/>
<path class="st1" d="M229.9-71.7c20.3-0.1,37.2,16.8,37.3,37.1c0.1,20-17.1,37.3-37.1,37.4c-20.4,0.2-37.6-17-37.5-37.4
	C192.7-55,209.5-71.7,229.9-71.7z"/>
<g class="st2">
	<g>
		<path class="st1" d="M-35.5,14.4c-0.9,0-1.8,0-2.7,0c0-3.2,0-6.3,0-9.5c0.8,0,1.7,0,2.6,0c0,0.4,0,0.8,0,1.3
			c0.1,0,0.1-0.1,0.1-0.1c0.5-0.7,1.1-1,2-1.2c1-0.1,1.9-0.1,2.8,0.3c0.8,0.4,1.2,1,1.4,1.9c0.2,0.7,0.2,1.5,0.2,2.2
			c0,1.6,0,3.3,0,4.9c0,0.1,0,0.1,0,0.2c-0.9,0-1.8,0-2.8,0c0-0.1,0-0.2,0-0.3c0-1.6,0-3.1,0-4.7c0-0.4-0.1-0.8-0.2-1.2
			c-0.2-0.6-0.6-0.9-1.2-0.9c-0.2,0-0.4,0-0.6,0c-0.7,0.1-1.1,0.5-1.3,1.2c-0.1,0.4-0.1,0.9-0.1,1.3c0,1.4,0,2.9,0,4.3
			C-35.5,14.2-35.5,14.3-35.5,14.4z"/>
		<path class="st1" d="M-40.3,14.4c-1.1,0-2.2,0-3.3,0c0-3.2,0-6.3,0-9.5c1.1,0,2.2,0,3.3,0C-40.3,8-40.3,11.2-40.3,14.4z"/>
		<path class="st1" d="M-42,0c0.9,0,1.7,0.8,1.7,1.7c0,0.9-0.8,1.7-1.7,1.7c-0.9,0-1.7-0.8-1.7-1.7C-43.6,0.8-42.9,0-42,0z"/>
	</g>
</g>
<g class="st2">
	<g>
		<path class="st1" d="M17.1,1.2c-0.1,0.5-0.2,1-0.3,1.5C16,6.3,15.1,10,14.3,13.7c-0.1,0.6-0.7,0.8-1.2,0.4
			c-1.2-0.9-2.4-1.9-3.7-2.8c-0.1-0.1-0.2-0.1-0.2-0.2c0,0-0.1,0.1-0.1,0.1c-0.7,0.6-1.3,1.3-2,1.9c-0.1,0.1-0.2,0.1-0.2,0.1
			c-0.2,0-0.4-0.1-0.3-0.3c0-0.7,0.1-1.3,0.1-2c0-0.5,0.1-0.9,0.1-1.4c0-0.2,0.1-0.3,0.2-0.4c2.3-2.1,4.5-4.2,6.8-6.2
			c0.1,0,0.1-0.1,0.1-0.1c0,0,0-0.1,0-0.2c0,0-0.1,0-0.1,0c0,0-0.1,0-0.1,0.1c-3,1.8-6,3.7-9.1,5.5c-0.1,0.1-0.2,0.1-0.4,0
			C2.9,8,1.7,7.5,0.5,7.1C0.2,7,0,6.8,0,6.6C0,6.3,0.1,6.1,0.4,6C5,4.3,9.6,2.5,14.2,0.8c0.5-0.2,1-0.4,1.5-0.6
			c0.8-0.3,1.1-0.2,1.5,0.6C17.1,0.9,17.1,1,17.1,1.2z"/>
	</g>
</g>
<g id="HwIFVz_00000018929965191646009590000011901858130605258378_">
	<g>
	</g>
</g>
</svg>
